<svg width="50" height="50" viewBox="0 0 100 100" fill="#7B6760" xmlns="http://www.w3.org/2000/svg">
<circle cx="50" cy="50" r="50" fill="#7B6760"/>
<path d="M73.3333 36.0684H24.4444C23.8551 36.0684 23.2898 36.3385 22.8731 36.8194C22.4563 37.3002 22.2222 37.9524 22.2222 38.6325V54.0171C22.2289 58.3824 23.0379 62.6965 24.596 66.6744C26.1542 70.6524 28.4258 74.2037 31.2611 77.094H24.4444C23.8551 77.094 23.2898 77.3642 22.8731 77.845C22.4563 78.3259 22.2222 78.9781 22.2222 79.6581C22.2222 80.3382 22.4563 80.9904 22.8731 81.4712C23.2898 81.9521 23.8551 82.2222 24.4444 82.2222H73.3333C73.9227 82.2222 74.4879 81.9521 74.9047 81.4712C75.3214 80.9904 75.5556 80.3382 75.5556 79.6581C75.5556 78.9781 75.3214 78.3259 74.9047 77.845C74.4879 77.3642 73.9227 77.094 73.3333 77.094H66.5167C69.92 73.6135 72.5008 69.192 74.0167 64.2447C76.8392 64.044 79.4892 62.6091 81.4267 60.2324C83.3642 57.8556 84.4434 54.7159 84.4444 51.453V48.8889C84.4444 45.4887 83.2738 42.2277 81.1901 39.8234C79.1063 37.4191 76.2802 36.0684 73.3333 36.0684ZM80 51.453C79.999 53.1119 79.5333 54.726 78.6722 56.0545C77.8112 57.383 76.601 58.3548 75.2222 58.8248C75.4424 57.2348 75.5539 55.6273 75.5556 54.0171V41.6389C76.855 42.169 77.9801 43.1508 78.776 44.4491C79.572 45.7475 79.9996 47.2986 80 48.8889V51.453ZM46.6667 28.3761V18.1197C46.6667 17.4396 46.9008 16.7874 47.3175 16.3066C47.7343 15.8257 48.2995 15.5556 48.8889 15.5556C49.4783 15.5556 50.0435 15.8257 50.4602 16.3066C50.877 16.7874 51.1111 17.4396 51.1111 18.1197V28.3761C51.1111 29.0561 50.877 29.7083 50.4602 30.1892C50.0435 30.67 49.4783 30.9402 48.8889 30.9402C48.2995 30.9402 47.7343 30.67 47.3175 30.1892C46.9008 29.7083 46.6667 29.0561 46.6667 28.3761ZM55.5556 28.3761V18.1197C55.5556 17.4396 55.7897 16.7874 56.2064 16.3066C56.6232 15.8257 57.1884 15.5556 57.7778 15.5556C58.3671 15.5556 58.9324 15.8257 59.3491 16.3066C59.7659 16.7874 60 17.4396 60 18.1197V28.3761C60 29.0561 59.7659 29.7083 59.3491 30.1892C58.9324 30.67 58.3671 30.9402 57.7778 30.9402C57.1884 30.9402 56.6232 30.67 56.2064 30.1892C55.7897 29.7083 55.5556 29.0561 55.5556 28.3761ZM37.7778 28.3761V18.1197C37.7778 17.4396 38.0119 16.7874 38.4287 16.3066C38.8454 15.8257 39.4106 15.5556 40 15.5556C40.5894 15.5556 41.1546 15.8257 41.5713 16.3066C41.9881 16.7874 42.2222 17.4396 42.2222 18.1197V28.3761C42.2222 29.0561 41.9881 29.7083 41.5713 30.1892C41.1546 30.67 40.5894 30.9402 40 30.9402C39.4106 30.9402 38.8454 30.67 38.4287 30.1892C38.0119 29.7083 37.7778 29.0561 37.7778 28.3761Z" fill="#442D2D"/>
</svg>
